<svg width="153" height="20" viewBox="0 0 153 20" fill="none" xmlns="http://www.w3.org/2000/svg">
<path d="M2.81259 15.1601H0V4.2887H2.75275V5.80471C3.04531 5.25948 3.49745 4.82063 4.10917 4.48818C4.72089 4.15572 5.40576 3.98949 6.16376 3.98949C7.34731 3.98949 8.35133 4.38179 9.17582 5.16639C10.0003 5.95099 10.4126 7.06804 10.4126 8.51756V15.1601H7.59998V9.27556C7.59998 8.42447 7.39385 7.7662 6.98161 7.30076C6.56936 6.82203 6.01083 6.58266 5.30602 6.58266C4.56132 6.58266 3.95624 6.84197 3.4908 7.36061C3.03866 7.86594 2.81259 8.52421 2.81259 9.3354V15.1601Z" fill="white"/>
<path d="M23.37 9.47504C23.37 9.80749 23.3367 10.2197 23.2703 10.7118H15.1117C15.5107 12.2544 16.5679 13.0257 18.2834 13.0257C19.5467 13.0257 20.717 12.66 21.7941 11.9286L22.9112 13.9034C21.5282 14.9007 19.9457 15.3994 18.1637 15.3994C16.262 15.3994 14.7992 14.8475 13.7753 13.7438C12.7646 12.6533 12.2593 11.3102 12.2593 9.71441C12.2593 8.05212 12.7845 6.68904 13.8351 5.62518C14.8857 4.54802 16.2487 4.00944 17.9243 4.00944C19.5068 4.00944 20.8101 4.50147 21.834 5.48555C22.858 6.46962 23.37 7.79945 23.37 9.47504ZM17.9243 6.34329C17.2195 6.34329 16.6145 6.54941 16.1091 6.96166C15.6171 7.36061 15.2846 7.91249 15.1117 8.6173H20.6372C20.5042 7.91249 20.1983 7.36061 19.7196 6.96166C19.2409 6.54941 18.6424 6.34329 17.9243 6.34329Z" fill="white"/>
<path d="M28.117 0V15.1601H25.3044V0H28.117Z" fill="white"/>
<path d="M34.2724 15.4393C32.384 15.4393 30.8879 14.7412 29.7842 13.3448L31.2802 11.5695C31.6659 12.035 32.1247 12.4073 32.6566 12.6866C33.2018 12.9525 33.7471 13.0855 34.2923 13.0855C34.7178 13.0855 35.0703 12.9858 35.3495 12.7863C35.6421 12.5868 35.7884 12.3342 35.7884 12.0283C35.7884 11.6427 35.529 11.3301 35.0104 11.0908C34.8508 11.0243 34.4186 10.8581 33.7138 10.5921C33.0888 10.366 32.6234 10.1732 32.3175 10.0136C31.0675 9.41519 30.4424 8.47766 30.4424 7.20103C30.4424 6.25685 30.8148 5.47225 31.5595 4.84723C32.2909 4.23551 33.275 3.92965 34.5117 3.92965C36.0543 3.92965 37.3243 4.44828 38.3217 5.48555L36.9254 7.30076C36.1674 6.58266 35.3362 6.2236 34.4319 6.2236C34.0729 6.2236 33.7737 6.31669 33.5343 6.50287C33.3082 6.67574 33.1952 6.88852 33.1952 7.14119C33.1952 7.59333 33.5144 7.92578 34.1527 8.13856C35.5756 8.67049 36.4466 9.02289 36.7658 9.19577C37.9892 9.83409 38.601 10.7517 38.601 11.9485C38.601 12.9725 38.202 13.8103 37.4041 14.4619C36.6328 15.1135 35.5889 15.4393 34.2724 15.4393Z" fill="white"/>
<path d="M39.9203 9.71441C39.9203 8.10531 40.4655 6.75553 41.556 5.66507C42.6597 4.54802 44.0561 3.98949 45.7449 3.98949C47.4338 3.98949 48.8301 4.54802 49.9339 5.66507C51.0244 6.75553 51.5696 8.10531 51.5696 9.71441C51.5696 11.3368 51.0244 12.6932 49.9339 13.7837C48.8301 14.8874 47.4338 15.4393 45.7449 15.4393C44.0561 15.4393 42.6597 14.8874 41.556 13.7837C40.4655 12.6932 39.9203 11.3368 39.9203 9.71441ZM43.5906 11.9286C44.1624 12.527 44.8806 12.8262 45.7449 12.8262C46.5827 12.8262 47.2942 12.527 47.8793 11.9286C48.4644 11.3036 48.757 10.5655 48.757 9.71441C48.757 8.86331 48.4644 8.13191 47.8793 7.52019C47.2942 6.92176 46.5827 6.62255 45.7449 6.62255C44.8806 6.62255 44.1624 6.92176 43.5906 7.52019C43.0188 8.10531 42.7329 8.83672 42.7329 9.71441C42.7329 10.5788 43.0188 11.3168 43.5906 11.9286Z" fill="white"/>
<path d="M56.3629 15.1601H53.5503V4.2887H56.3031V5.80471C56.5956 5.25948 57.0478 4.82063 57.6595 4.48818C58.2712 4.15572 58.9561 3.98949 59.7141 3.98949C60.8976 3.98949 61.9016 4.38179 62.7261 5.16639C63.5506 5.95099 63.9629 7.06804 63.9629 8.51756V15.1601H61.1503V9.27556C61.1503 8.42447 60.9442 7.7662 60.5319 7.30076C60.1197 6.82203 59.5611 6.58266 58.8563 6.58266C58.1116 6.58266 57.5066 6.84197 57.0411 7.36061C56.589 7.86594 56.3629 8.52421 56.3629 9.3354V15.1601Z" fill="white"/>
<path d="M76.9917 9.71441C76.9917 8.10532 77.5369 6.75554 78.6274 5.66508C79.7311 4.54802 81.1275 3.98949 82.8164 3.98949C84.5052 3.98949 85.9016 4.54802 87.0053 5.66508C88.0958 6.75554 88.641 8.10532 88.641 9.71441C88.641 11.3368 88.0958 12.6932 87.0053 13.7837C85.9016 14.8874 84.5052 15.4393 82.8164 15.4393C81.1275 15.4393 79.7311 14.8874 78.6274 13.7837C77.5369 12.6932 76.9917 11.3368 76.9917 9.71441ZM80.662 11.9286C81.2339 12.527 81.952 12.8262 82.8164 12.8262C83.6541 12.8262 84.3656 12.527 84.9507 11.9286C85.5359 11.3036 85.8284 10.5655 85.8284 9.71441C85.8284 8.86332 85.5359 8.13191 84.9507 7.52019C84.3656 6.92177 83.6541 6.62256 82.8164 6.62256C81.952 6.62256 81.2339 6.92177 80.662 7.52019C80.0902 8.10532 79.8043 8.83672 79.8043 9.71441C79.8043 10.5788 80.0902 11.3169 80.662 11.9286Z" fill="white"/>
<path d="M98.9398 5.48555V4.28871H101.533V14.0829C101.533 15.8383 100.974 17.2213 99.8574 18.232C98.727 19.2559 97.2775 19.7679 95.5088 19.7679C93.6338 19.7679 91.9715 19.2426 90.522 18.1921L91.6191 16.0776C92.8691 16.9287 94.1391 17.3543 95.4291 17.3543C96.4796 17.3543 97.3041 17.075 97.9025 16.5165C98.5143 15.958 98.8201 15.2332 98.8201 14.3422V13.7837C97.9823 14.7146 96.8653 15.18 95.469 15.18C93.8732 15.18 92.5699 14.6547 91.5593 13.6042C90.5486 12.5536 90.0432 11.2238 90.0432 9.61467C90.0432 8.00558 90.5752 6.6691 91.639 5.60524C92.7029 4.54137 94.0194 4.00944 95.5886 4.00944C96.9185 4.00944 98.0355 4.50148 98.9398 5.48555ZM92.8758 9.63462C92.8758 10.5389 93.1617 11.277 93.7335 11.8488C94.3186 12.4339 95.0368 12.7265 95.8878 12.7265C96.7389 12.7265 97.457 12.4339 98.0422 11.8488C98.614 11.2637 98.8999 10.5256 98.8999 9.63462C98.8999 8.75693 98.614 8.03218 98.0422 7.46035C97.457 6.87522 96.7389 6.58266 95.8878 6.58266C95.0368 6.58266 94.3186 6.87522 93.7335 7.46035C93.1617 8.03218 92.8758 8.75693 92.8758 9.63462Z" fill="white"/>
<path d="M112.58 14.1427C111.702 14.9938 110.485 15.4194 108.93 15.4194C107.374 15.4194 106.15 14.9938 105.259 14.1427C104.382 13.2784 103.943 12.0882 103.943 10.5722V4.28871H106.755V10.5722C106.755 11.2637 106.948 11.8155 107.334 12.2278C107.719 12.64 108.251 12.8462 108.93 12.8462C109.608 12.8462 110.14 12.64 110.525 12.2278C110.911 11.8155 111.104 11.2637 111.104 10.5722V4.28871H113.916V10.5722C113.916 12.1015 113.471 13.2917 112.58 14.1427Z" fill="white"/>
<path d="M124.653 5.48555V4.28871H127.246V14.0829C127.246 15.8383 126.688 17.2213 125.571 18.232C124.441 19.2559 122.991 19.7679 121.222 19.7679C119.347 19.7679 117.685 19.2426 116.235 18.1921L117.333 16.0776C118.583 16.9287 119.853 17.3543 121.143 17.3543C122.193 17.3543 123.018 17.075 123.616 16.5165C124.228 15.958 124.534 15.2332 124.534 14.3422V13.7837C123.696 14.7146 122.579 15.18 121.182 15.18C119.587 15.18 118.283 14.6547 117.273 13.6042C116.262 12.5536 115.757 11.2238 115.757 9.61467C115.757 8.00558 116.289 6.6691 117.353 5.60524C118.416 4.54137 119.733 4.00944 121.302 4.00944C122.632 4.00944 123.749 4.50148 124.653 5.48555ZM118.589 9.63462C118.589 10.5389 118.875 11.277 119.447 11.8488C120.032 12.4339 120.75 12.7265 121.601 12.7265C122.452 12.7265 123.171 12.4339 123.756 11.8488C124.327 11.2637 124.613 10.5256 124.613 9.63462C124.613 8.75693 124.327 8.03218 123.756 7.46035C123.171 6.87522 122.452 6.58266 121.601 6.58266C120.75 6.58266 120.032 6.87522 119.447 7.46035C118.875 8.03218 118.589 8.75693 118.589 9.63462Z" fill="white"/>
<path d="M138.293 14.1427C137.416 14.9938 136.199 15.4194 134.643 15.4194C133.087 15.4194 131.864 14.9938 130.973 14.1427C130.095 13.2784 129.656 12.0882 129.656 10.5722V4.28871H132.469V10.5722C132.469 11.2637 132.662 11.8155 133.047 12.2278C133.433 12.64 133.965 12.8462 134.643 12.8462C135.321 12.8462 135.853 12.64 136.239 12.2278C136.625 11.8155 136.817 11.2637 136.817 10.5722V4.28871H139.63V10.5722C139.63 12.1015 139.184 13.2917 138.293 14.1427Z" fill="white"/>
<path d="M150.327 5.58529V4.28871H153V15.1601H150.327V13.9034C149.396 14.914 148.239 15.4194 146.856 15.4194C145.287 15.4194 143.997 14.8741 142.986 13.7837C141.976 12.6932 141.47 11.3235 141.47 9.67452C141.47 8.03882 141.982 6.68905 143.006 5.62518C144.03 4.54802 145.313 4.00944 146.856 4.00944C148.212 4.00944 149.369 4.53472 150.327 5.58529ZM150.367 9.71441C150.367 8.86332 150.074 8.12526 149.489 7.50024C148.917 6.88852 148.193 6.58266 147.315 6.58266C146.424 6.58266 145.692 6.88852 145.121 7.50024C144.562 8.11197 144.283 8.85002 144.283 9.71441C144.283 10.5921 144.569 11.3368 145.141 11.9485C145.712 12.5602 146.437 12.8661 147.315 12.8661C148.193 12.8661 148.917 12.5602 149.489 11.9485C150.074 11.3235 150.367 10.5788 150.367 9.71441Z" fill="white"/>
<path d="M70.5255 15.4792C69.7772 15.4792 69.1465 15.2334 68.6334 14.7416C68.1203 14.2285 67.8638 13.5978 67.8638 12.8496C67.8638 12.1227 68.1203 11.5133 68.6334 11.0216C69.1465 10.5299 69.7772 10.284 70.5255 10.284C71.231 10.284 71.8297 10.5299 72.3214 11.0216C72.8345 11.5133 73.091 12.1227 73.091 12.8496C73.091 13.5978 72.8345 14.2285 72.3214 14.7416C71.8297 15.2334 71.231 15.4792 70.5255 15.4792Z" fill="#FDBD1A"/>
</svg>
